<svg xmlns="http://www.w3.org/2000/svg" viewBox="0 0 1000 414" width="1000" height="414" font-family="-apple-system, BlinkMacSystemFont, 'Segoe UI', Helvetica, Arial, sans-serif">
  <style>
    .bg    { fill: #ffffff }
    .cam   { fill: #f6f8fc; stroke: #e3e8f0; stroke-width: 1.5 }
    .title { fill: #111318; font-size: 21px; font-weight: 700 }
    .sub   { fill: #7a828f; font-size: 13.5px }
    .cap   { fill: #57606a; font-size: 13px; font-weight: 600 }
    .bone  { stroke: #b9c2d0; stroke-width: 2.4; stroke-linecap: round; fill: none }
    .joint { fill: #b9c2d0 }
    .track { fill: #e6eaf2 }
    .mono  { font-family: ui-monospace, SFMono-Regular, Menlo, monospace;
             font-size: 12px; fill: #7a828f }
    .tickl { stroke: #9aa3b2; stroke-width: 1.5 }
    .hot   { stroke: #e0245e; stroke-width: 3.2; stroke-linecap: round; fill: none }
    .hotj  { fill: #e0245e }
    .fire  { fill: #1a9c53 }
    .cold  { fill: #9aa3b2 }
    @media (prefers-color-scheme: dark) {
      .bg    { fill: #0b0d12 }
      .cam   { fill: #10151f; stroke: #222a38 }
      .title { fill: #e8ebf5 }
      .sub   { fill: #8b949e }
      .cap   { fill: #aab3c0 }
      .bone  { stroke: #3d4657 }
      .joint { fill: #3d4657 }
      .track { fill: #1a2130 }
      .mono  { fill: #79828f }
      .tickl { stroke: #5b6472 }
      .hot   { stroke: #ff5c8a }
      .hotj  { fill: #ff5c8a }
      .fire  { fill: #2ea043 }
      .cold  { fill: #5b6472 }
    }
  </style>
  <rect class="bg" x="0" y="0" width="1000" height="414"/>
  <text x="26" y="38" class="title">What <tspan class="mono" font-size="19">--tune</tspan> shows you</text>
  <text x="26" y="61" class="sub">Three recorded frames, scored by the same rules that decide whether to send. Green past the tick means it would fire.</text>
  <rect class="cam" x="26.0" y="84" width="300" height="236" rx="12"/>
  <line class="bone" x1="177.0" y1="303.5" x2="208.1" y2="265.3"/>
  <line class="bone" x1="177.0" y1="303.5" x2="209.5" y2="229.4"/>
  <line class="bone" x1="177.0" y1="303.5" x2="130.8" y2="254.9"/>
  <line class="hot" x1="209.5" y1="229.4" x2="177.0" y2="239.3"/>
  <line class="bone" x1="177.0" y1="239.3" x2="147.4" y2="239.4"/>
  <line class="bone" x1="147.4" y1="239.4" x2="130.8" y2="254.9"/>
  <line class="bone" x1="208.1" y1="265.3" x2="223.3" y2="230.2"/>
  <line class="bone" x1="223.3" y1="230.2" x2="223.3" y2="193.4"/>
  <line class="bone" x1="223.3" y1="193.4" x2="197.1" y2="182.0"/>
  <line class="bone" x1="209.5" y1="229.4" x2="194.6" y2="201.4"/>
  <line class="bone" x1="194.6" y1="201.4" x2="188.9" y2="203.7"/>
  <line class="bone" x1="188.9" y1="203.7" x2="192.4" y2="231.6"/>
  <line class="hot" x1="177.0" y1="239.3" x2="162.4" y2="179.6"/>
  <line class="hot" x1="162.4" y1="179.6" x2="170.3" y2="141.6"/>
  <line class="hot" x1="170.3" y1="141.6" x2="172.4" y2="100.5"/>
  <line class="bone" x1="147.4" y1="239.4" x2="140.8" y2="196.4"/>
  <line class="bone" x1="140.8" y1="196.4" x2="159.0" y2="204.3"/>
  <line class="bone" x1="159.0" y1="204.3" x2="163.9" y2="215.8"/>
  <line class="bone" x1="130.8" y1="254.9" x2="128.7" y2="220.0"/>
  <line class="bone" x1="128.7" y1="220.0" x2="137.0" y2="218.3"/>
  <line class="bone" x1="137.0" y1="218.3" x2="141.4" y2="235.2"/>
  <circle class="joint" cx="177.0" cy="303.5" r="3.2"/>
  <circle class="joint" cx="208.1" cy="265.3" r="3.2"/>
  <circle class="joint" cx="223.3" cy="230.2" r="3.2"/>
  <circle class="joint" cx="223.3" cy="193.4" r="3.2"/>
  <circle class="joint" cx="197.1" cy="182.0" r="3.2"/>
  <circle class="joint" cx="209.5" cy="229.4" r="3.2"/>
  <circle class="joint" cx="194.6" cy="201.4" r="3.2"/>
  <circle class="joint" cx="188.9" cy="203.7" r="3.2"/>
  <circle class="joint" cx="192.4" cy="231.6" r="3.2"/>
  <circle class="hotj" cx="177.0" cy="239.3" r="4.2"/>
  <circle class="hotj" cx="162.4" cy="179.6" r="4.2"/>
  <circle class="hotj" cx="170.3" cy="141.6" r="4.2"/>
  <circle class="hotj" cx="172.4" cy="100.5" r="4.2"/>
  <circle class="joint" cx="147.4" cy="239.4" r="3.2"/>
  <circle class="joint" cx="140.8" cy="196.4" r="3.2"/>
  <circle class="joint" cx="159.0" cy="204.3" r="3.2"/>
  <circle class="joint" cx="163.9" cy="215.8" r="3.2"/>
  <circle class="joint" cx="130.8" cy="254.9" r="3.2"/>
  <circle class="joint" cx="128.7" cy="220.0" r="3.2"/>
  <circle class="joint" cx="137.0" cy="218.3" r="3.2"/>
  <circle class="joint" cx="141.4" cy="235.2" r="3.2"/>
  <text x="26.0" y="344" class="mono">middle 0.95   index 0.36   ring 0.69   pinky 0.64</text>
  <rect class="track" x="26.0" y="354" width="300" height="14" rx="7"/>
  <rect class="fire" x="26.0" y="354" width="300.0" height="14" rx="7"/>
  <line class="tickl" x1="176.0" y1="350" x2="176.0" y2="372"/>
  <text x="26.0" y="394" class="cap">1.00  a real flip-off</text>
  <rect class="cam" x="350.0" y="84" width="300" height="236" rx="12"/>
  <line class="bone" x1="476.2" y1="303.5" x2="462.7" y2="251.6"/>
  <line class="bone" x1="476.2" y1="303.5" x2="457.3" y2="190.0"/>
  <line class="bone" x1="476.2" y1="303.5" x2="523.4" y2="250.5"/>
  <line class="hot" x1="457.3" y1="190.0" x2="476.2" y2="207.6"/>
  <line class="bone" x1="476.2" y1="207.6" x2="495.6" y2="224.4"/>
  <line class="bone" x1="495.6" y1="224.4" x2="523.4" y2="250.5"/>
  <line class="bone" x1="462.7" y1="251.6" x2="449.0" y2="208.6"/>
  <line class="bone" x1="449.0" y1="208.6" x2="445.5" y2="167.6"/>
  <line class="bone" x1="445.5" y1="167.6" x2="450.9" y2="130.7"/>
  <line class="bone" x1="457.3" y1="190.0" x2="487.0" y2="161.3"/>
  <line class="bone" x1="487.0" y1="161.3" x2="509.2" y2="150.1"/>
  <line class="bone" x1="509.2" y1="150.1" x2="517.6" y2="158.3"/>
  <line class="hot" x1="476.2" y1="207.6" x2="508.9" y2="157.5"/>
  <line class="hot" x1="508.9" y1="157.5" x2="540.2" y2="131.4"/>
  <line class="hot" x1="540.2" y1="131.4" x2="554.5" y2="100.5"/>
  <line class="bone" x1="495.6" y1="224.4" x2="527.1" y2="186.7"/>
  <line class="bone" x1="527.1" y1="186.7" x2="546.2" y2="172.6"/>
  <line class="bone" x1="546.2" y1="172.6" x2="550.4" y2="165.2"/>
  <line class="bone" x1="523.4" y1="250.5" x2="537.8" y2="218.3"/>
  <line class="bone" x1="537.8" y1="218.3" x2="536.4" y2="208.0"/>
  <line class="bone" x1="536.4" y1="208.0" x2="528.0" y2="220.6"/>
  <circle class="joint" cx="476.2" cy="303.5" r="3.2"/>
  <circle class="joint" cx="462.7" cy="251.6" r="3.2"/>
  <circle class="joint" cx="449.0" cy="208.6" r="3.2"/>
  <circle class="joint" cx="445.5" cy="167.6" r="3.2"/>
  <circle class="joint" cx="450.9" cy="130.7" r="3.2"/>
  <circle class="joint" cx="457.3" cy="190.0" r="3.2"/>
  <circle class="joint" cx="487.0" cy="161.3" r="3.2"/>
  <circle class="joint" cx="509.2" cy="150.1" r="3.2"/>
  <circle class="joint" cx="517.6" cy="158.3" r="3.2"/>
  <circle class="hotj" cx="476.2" cy="207.6" r="4.2"/>
  <circle class="hotj" cx="508.9" cy="157.5" r="4.2"/>
  <circle class="hotj" cx="540.2" cy="131.4" r="4.2"/>
  <circle class="hotj" cx="554.5" cy="100.5" r="4.2"/>
  <circle class="joint" cx="495.6" cy="224.4" r="3.2"/>
  <circle class="joint" cx="527.1" cy="186.7" r="3.2"/>
  <circle class="joint" cx="546.2" cy="172.6" r="3.2"/>
  <circle class="joint" cx="550.4" cy="165.2" r="3.2"/>
  <circle class="joint" cx="523.4" cy="250.5" r="3.2"/>
  <circle class="joint" cx="537.8" cy="218.3" r="3.2"/>
  <circle class="joint" cx="536.4" cy="208.0" r="3.2"/>
  <circle class="joint" cx="528.0" cy="220.6" r="3.2"/>
  <text x="350.0" y="344" class="mono">middle 0.91   index 0.77   ring 0.87   pinky 0.72</text>
  <rect class="track" x="350.0" y="354" width="300" height="14" rx="7"/>
  <rect class="cold" x="350.0" y="354" width="71.3" height="14" rx="7"/>
  <line class="tickl" x1="500.0" y1="350" x2="500.0" y2="372"/>
  <text x="350.0" y="394" class="cap">0.24  the nearest miss on file</text>
  <rect class="cam" x="674.0" y="84" width="300" height="236" rx="12"/>
  <line class="bone" x1="868.8" y1="303.5" x2="872.7" y2="252.1"/>
  <line class="bone" x1="868.8" y1="303.5" x2="882.1" y2="148.7"/>
  <line class="bone" x1="868.8" y1="303.5" x2="828.2" y2="198.3"/>
  <line class="hot" x1="882.1" y1="148.7" x2="868.8" y2="155.6"/>
  <line class="bone" x1="868.8" y1="155.6" x2="845.8" y2="170.3"/>
  <line class="bone" x1="845.8" y1="170.3" x2="828.2" y2="198.3"/>
  <line class="bone" x1="872.7" y1="252.1" x2="860.4" y2="201.3"/>
  <line class="bone" x1="860.4" y1="201.3" x2="846.2" y2="160.9"/>
  <line class="bone" x1="846.2" y1="160.9" x2="829.5" y2="137.7"/>
  <line class="bone" x1="882.1" y1="148.7" x2="844.6" y2="114.4"/>
  <line class="bone" x1="844.6" y1="114.4" x2="817.9" y2="100.5"/>
  <line class="bone" x1="817.9" y1="100.5" x2="786.9" y2="105.2"/>
  <line class="hot" x1="868.8" y1="155.6" x2="823.7" y2="120.1"/>
  <line class="hot" x1="823.7" y1="120.1" x2="789.1" y2="128.6"/>
  <line class="hot" x1="789.1" y1="128.6" x2="775.3" y2="149.8"/>
  <line class="bone" x1="845.8" y1="170.3" x2="802.7" y2="143.8"/>
  <line class="bone" x1="802.7" y1="143.8" x2="776.7" y2="151.5"/>
  <line class="bone" x1="776.7" y1="151.5" x2="765.9" y2="177.2"/>
  <line class="bone" x1="828.2" y1="198.3" x2="794.3" y2="176.0"/>
  <line class="bone" x1="794.3" y1="176.0" x2="775.7" y2="174.1"/>
  <line class="bone" x1="775.7" y1="174.1" x2="767.7" y2="190.4"/>
  <circle class="joint" cx="868.8" cy="303.5" r="3.2"/>
  <circle class="joint" cx="872.7" cy="252.1" r="3.2"/>
  <circle class="joint" cx="860.4" cy="201.3" r="3.2"/>
  <circle class="joint" cx="846.2" cy="160.9" r="3.2"/>
  <circle class="joint" cx="829.5" cy="137.7" r="3.2"/>
  <circle class="joint" cx="882.1" cy="148.7" r="3.2"/>
  <circle class="joint" cx="844.6" cy="114.4" r="3.2"/>
  <circle class="joint" cx="817.9" cy="100.5" r="3.2"/>
  <circle class="joint" cx="786.9" cy="105.2" r="3.2"/>
  <circle class="hotj" cx="868.8" cy="155.6" r="4.2"/>
  <circle class="hotj" cx="823.7" cy="120.1" r="4.2"/>
  <circle class="hotj" cx="789.1" cy="128.6" r="4.2"/>
  <circle class="hotj" cx="775.3" cy="149.8" r="4.2"/>
  <circle class="joint" cx="845.8" cy="170.3" r="3.2"/>
  <circle class="joint" cx="802.7" cy="143.8" r="3.2"/>
  <circle class="joint" cx="776.7" cy="151.5" r="3.2"/>
  <circle class="joint" cx="765.9" cy="177.2" r="3.2"/>
  <circle class="joint" cx="828.2" cy="198.3" r="3.2"/>
  <circle class="joint" cx="794.3" cy="176.0" r="3.2"/>
  <circle class="joint" cx="775.7" cy="174.1" r="3.2"/>
  <circle class="joint" cx="767.7" cy="190.4" r="3.2"/>
  <text x="674.0" y="344" class="mono">middle 0.76   index 0.91   ring 0.78   pinky 0.79</text>
  <rect class="track" x="674.0" y="354" width="300" height="14" rx="7"/>
  <line class="tickl" x1="824.0" y1="350" x2="824.0" y2="372"/>
  <text x="674.0" y="394" class="cap">0.00  an ordinary open hand</text>
</svg>
